<?xml version="1.0" encoding="iso-8859-1"?>
<!-- Generator: Adobe Illustrator 23.0.1, SVG Export Plug-In . SVG Version: 6.00 Build 0)  -->
<svg version="1.1" id="Layer_1" xmlns="http://www.w3.org/2000/svg" xmlns:xlink="http://www.w3.org/1999/xlink" x="0px" y="0px"
	 viewBox="0 0 512 512" style="enable-background:new 0 0 512 512;" xml:space="preserve">
<g id="XMLID_4116_">
	<g id="XMLID_4117_">
		<g id="XMLID_4120_">
			<path id="XMLID_14315_" style="fill:#010101;" d="M216.872,324.478c-2.974,0-5.772-1.35-7.65-3.678L52.701,125.148
				c-2.348-2.935-2.798-6.965-1.174-10.35c1.643-3.385,5.048-5.537,8.824-5.537h313.043c3.757,0,7.18,2.152,8.824,5.537
				c1.624,3.404,1.174,7.415-1.174,10.35L224.522,320.8C222.664,323.128,219.846,324.478,216.872,324.478z M80.718,128.826
				l136.174,170.198l136.154-170.198H80.718z"/>
		</g>
		<g id="XMLID_4121_">
			<path id="XMLID_14314_" style="fill:#010101;" d="M216.872,481c-5.4,0-9.783-4.383-9.783-9.783V314.696
				c0-5.4,4.383-9.783,9.783-9.783s9.783,4.383,9.783,9.783v156.522C226.655,476.637,222.292,481,216.872,481z"/>
		</g>
		<g id="XMLID_4126_">
			<path id="XMLID_14313_" style="fill:#010101;" d="M304.916,481H138.612c-5.4,0-9.783-4.383-9.783-9.783
				c0-5.4,4.383-9.783,9.783-9.783h166.304c5.4,0,9.783,4.383,9.783,9.783C314.699,476.637,310.336,481,304.916,481z"/>
		</g>
		<g id="XMLID_4127_">
			<path id="XMLID_14312_" style="fill:#010101;" d="M324.481,187.522H109.264c-5.4,0-9.783-4.383-9.783-9.783
				s4.383-9.783,9.783-9.783h215.217c5.4,0,9.783,4.383,9.783,9.783S329.901,187.522,324.481,187.522z"/>
		</g>
	</g>
	<g id="XMLID_4128_">
		<path id="XMLID_14309_" style="fill:#010101;" d="M373.394,207.087c-19.878,0-38.817-6.77-54.802-19.585
			c-4.207-3.365-4.891-9.509-1.526-13.735l35.961-44.941h-57.893c-5.4,0-9.783-4.383-9.783-9.783
			c0-48.541,39.502-88.043,88.043-88.043s88.043,39.502,88.043,88.043S421.955,207.087,373.394,207.087z M338.881,177.857
			c10.565,6.339,22.343,9.665,34.533,9.665c37.761,0,68.478-30.717,68.478-68.478s-30.717-68.478-68.478-68.478
			c-34.435,0-63.02,25.552-67.774,58.696h67.774c3.757,0,7.18,2.152,8.824,5.537c1.624,3.404,1.174,7.415-1.174,10.35
			L338.881,177.857z"/>
	</g>
</g>
</svg>
